<svg xmlns="http://www.w3.org/2000/svg" width="173.17" height="113" viewBox="0 0 173.17 113">
  <g id="get-started" transform="translate(-220.161 -619)">
    <g id="features-5" transform="translate(220.161 619)">
      <g id="Group_23" data-name="Group 23" transform="translate(0 0)">
        <path id="Path_14" data-name="Path 14" d="M20.5,22.793c0-4.3,3.877-7.793,8.658-7.793h77.926V128H29.158c-4.782,0-8.658-3.489-8.658-7.793Z" transform="translate(-20.5 -15)" fill="#eee"/>
        <path id="Path_15" data-name="Path 15" d="M149.687,22.793c0-4.3-3.993-7.793-8.919-7.793H60.5V128h80.269c4.926,0,8.919-3.489,8.919-7.793Z" transform="translate(23.482 -15)" fill="#eee"/>
        <path id="Path_16" data-name="Path 16" d="M20.5,20.71c0-3.154,3.877-5.71,8.658-5.71h77.926V29.276H20.5Z" transform="translate(-20.5 -15)" fill="#dadada"/>
        <path id="Path_17" data-name="Path 17" d="M147.085,20.71c0-3.154-3.877-5.71-8.658-5.71H60.5V29.276h86.585Z" transform="translate(26.085 -15)" fill="#dadada"/>
        <ellipse id="Ellipse_1" data-name="Ellipse 1" cx="4.317" cy="2.847" rx="4.317" ry="2.847" transform="translate(11.512 4.745)" fill="#999795"/>
        <path id="Path_18" data-name="Path 18" d="M29.5,31h74.784v5.71H29.5ZM61.55,42.421H139.9v5.71H61.55Zm0,11.421H139.9v5.71H61.55Z" transform="translate(-10.018 4.557)" fill="#ffb45b" opacity="0.6"/>
      </g>
    </g>
  </g>
</svg>
