<svg xmlns="http://www.w3.org/2000/svg" xmlns:xlink="http://www.w3.org/1999/xlink" width="173.17" height="113" viewBox="0 0 173.17 113">
  <defs>
    <clipPath id="clip-path">
      <rect width="173.17" height="52.31" fill="none"/>
    </clipPath>
  </defs>
  <g id="screencast" transform="translate(-998.373 -402.78)">
    <g id="Group_56" data-name="Group 56" transform="translate(998.373 402.78)">
      <g id="screencasts">
        <g id="Group_40" data-name="Group 40">
          <g id="Repeat_Grid_8" data-name="Repeat Grid 8" clip-path="url(#clip-path)">
            <g id="Group_28" data-name="Group 28" transform="translate(-1008.904 -725.205)">
              <g id="Group_27" data-name="Group 27" transform="translate(788.742 106.457)" opacity="0.73">
                <g id="features-5" transform="translate(220.161 619)">
                  <g id="Group_23" data-name="Group 23" transform="translate(0 0)">
                    <path id="Path_14" data-name="Path 14" d="M20.5,18.465C20.5,16.551,22.331,15,24.591,15H61.406V65.241H24.591c-2.259,0-4.091-1.551-4.091-3.465Z" transform="translate(-20.5 -15)" fill="#eee"/>
                    <path id="Path_15" data-name="Path 15" d="M102.636,18.465c0-1.914-1.886-3.465-4.214-3.465H60.5V65.241H98.422c2.327,0,4.214-1.551,4.214-3.465Z" transform="translate(-20.823 -15)" fill="#eee"/>
                    <path id="Path_16" data-name="Path 16" d="M20.5,17.726C20.5,16.22,22.331,15,24.591,15H61.406v6.814H20.5Z" transform="translate(-20.5 -15)" fill="#dadada"/>
                    <path id="Path_17" data-name="Path 17" d="M101.406,17.726c0-1.505-1.831-2.726-4.091-2.726H60.5v6.814h40.906Z" transform="translate(-19.594 -15)" fill="#dadada"/>
                    <ellipse id="Ellipse_1" data-name="Ellipse 1" cx="2.04" cy="1.359" rx="2.04" ry="1.359" transform="translate(5.439 2.265)" fill="#999795"/>
                  </g>
                </g>
              </g>
              <path id="Polygon_1" data-name="Polygon 1" d="M8.976,0l8.976,14.5H0Z" transform="translate(1057.06 741.602) rotate(90)" fill="#ffb45b" opacity="0.6"/>
            </g>
            <g id="Group_28-2" data-name="Group 28" transform="translate(-918.904 -725.205)">
              <g id="Group_27-2" data-name="Group 27" transform="translate(788.742 106.457)" opacity="0.73">
                <g id="features-5-2" data-name="features-5" transform="translate(220.161 619)">
                  <g id="Group_23-2" data-name="Group 23" transform="translate(0 0)">
                    <path id="Path_14-2" data-name="Path 14" d="M20.5,18.465C20.5,16.551,22.331,15,24.591,15H61.406V65.241H24.591c-2.259,0-4.091-1.551-4.091-3.465Z" transform="translate(-20.5 -15)" fill="#eee"/>
                    <path id="Path_15-2" data-name="Path 15" d="M102.636,18.465c0-1.914-1.886-3.465-4.214-3.465H60.5V65.241H98.422c2.327,0,4.214-1.551,4.214-3.465Z" transform="translate(-20.823 -15)" fill="#eee"/>
                    <path id="Path_16-2" data-name="Path 16" d="M20.5,17.726C20.5,16.22,22.331,15,24.591,15H61.406v6.814H20.5Z" transform="translate(-20.5 -15)" fill="#dadada"/>
                    <path id="Path_17-2" data-name="Path 17" d="M101.406,17.726c0-1.505-1.831-2.726-4.091-2.726H60.5v6.814h40.906Z" transform="translate(-19.594 -15)" fill="#dadada"/>
                    <ellipse id="Ellipse_1-2" data-name="Ellipse 1" cx="2.04" cy="1.359" rx="2.04" ry="1.359" transform="translate(5.439 2.265)" fill="#999795"/>
                  </g>
                </g>
              </g>
              <path id="Polygon_1-2" data-name="Polygon 1" d="M8.976,0l8.976,14.5H0Z" transform="translate(1057.06 741.602) rotate(90)" fill="#ffb45b" opacity="0.6"/>
            </g>
          </g>
        </g>
      </g>
    </g>
    <g id="Group_57" data-name="Group 57" transform="translate(998.373 463.47)">
      <g id="screencasts-2" data-name="screencasts">
        <g id="Group_40-2" data-name="Group 40">
          <g id="Repeat_Grid_8-2" data-name="Repeat Grid 8" clip-path="url(#clip-path)">
            <g id="Group_28-3" data-name="Group 28" transform="translate(-1008.904 -725.205)">
              <g id="Group_27-3" data-name="Group 27" transform="translate(788.742 106.457)" opacity="0.73">
                <g id="features-5-3" data-name="features-5" transform="translate(220.161 619)">
                  <g id="Group_23-3" data-name="Group 23" transform="translate(0 0)">
                    <path id="Path_14-3" data-name="Path 14" d="M20.5,18.465C20.5,16.551,22.331,15,24.591,15H61.406V65.241H24.591c-2.259,0-4.091-1.551-4.091-3.465Z" transform="translate(-20.5 -15)" fill="#eee"/>
                    <path id="Path_15-3" data-name="Path 15" d="M102.636,18.465c0-1.914-1.886-3.465-4.214-3.465H60.5V65.241H98.422c2.327,0,4.214-1.551,4.214-3.465Z" transform="translate(-20.823 -15)" fill="#eee"/>
                    <path id="Path_16-3" data-name="Path 16" d="M20.5,17.726C20.5,16.22,22.331,15,24.591,15H61.406v6.814H20.5Z" transform="translate(-20.5 -15)" fill="#dadada"/>
                    <path id="Path_17-3" data-name="Path 17" d="M101.406,17.726c0-1.505-1.831-2.726-4.091-2.726H60.5v6.814h40.906Z" transform="translate(-19.594 -15)" fill="#dadada"/>
                    <ellipse id="Ellipse_1-3" data-name="Ellipse 1" cx="2.04" cy="1.359" rx="2.04" ry="1.359" transform="translate(5.439 2.265)" fill="#999795"/>
                  </g>
                </g>
              </g>
              <path id="Polygon_1-3" data-name="Polygon 1" d="M8.976,0l8.976,14.5H0Z" transform="translate(1057.06 741.602) rotate(90)" fill="#ffb45b" opacity="0.6"/>
            </g>
            <g id="Group_28-4" data-name="Group 28" transform="translate(-918.904 -725.205)">
              <g id="Group_27-4" data-name="Group 27" transform="translate(788.742 106.457)" opacity="0.73">
                <g id="features-5-4" data-name="features-5" transform="translate(220.161 619)">
                  <g id="Group_23-4" data-name="Group 23" transform="translate(0 0)">
                    <path id="Path_14-4" data-name="Path 14" d="M20.5,18.465C20.5,16.551,22.331,15,24.591,15H61.406V65.241H24.591c-2.259,0-4.091-1.551-4.091-3.465Z" transform="translate(-20.5 -15)" fill="#eee"/>
                    <path id="Path_15-4" data-name="Path 15" d="M102.636,18.465c0-1.914-1.886-3.465-4.214-3.465H60.5V65.241H98.422c2.327,0,4.214-1.551,4.214-3.465Z" transform="translate(-20.823 -15)" fill="#eee"/>
                    <path id="Path_16-4" data-name="Path 16" d="M20.5,17.726C20.5,16.22,22.331,15,24.591,15H61.406v6.814H20.5Z" transform="translate(-20.5 -15)" fill="#dadada"/>
                    <path id="Path_17-4" data-name="Path 17" d="M101.406,17.726c0-1.505-1.831-2.726-4.091-2.726H60.5v6.814h40.906Z" transform="translate(-19.594 -15)" fill="#dadada"/>
                    <ellipse id="Ellipse_1-4" data-name="Ellipse 1" cx="2.04" cy="1.359" rx="2.04" ry="1.359" transform="translate(5.439 2.265)" fill="#999795"/>
                  </g>
                </g>
              </g>
              <path id="Polygon_1-4" data-name="Polygon 1" d="M8.976,0l8.976,14.5H0Z" transform="translate(1057.06 741.602) rotate(90)" fill="#ffb45b" opacity="0.6"/>
            </g>
          </g>
        </g>
      </g>
    </g>
  </g>
</svg>
