<svg width="179" height="50" fill="none" xmlns="http://www.w3.org/2000/svg"><g filter="url(#filter0_d)"><rect x="1" width="177" height="48" rx="16" fill="#F9F9F9"/><path fill-rule="evenodd" clip-rule="evenodd" d="M30.608 12.271c.662 1.207.255 2.742-.909 3.429l-7.65 4.513a.408.408 0 00-.199.352v7.31c0 .145.076.28.198.352l6.259 3.692c.12.07.267.07.386 0l6.259-3.692a.408.408 0 00.198-.352V23.23l-5.462 3.18c-1.168.681-2.646.25-3.302-.96-.656-1.21-.242-2.743.926-3.423l7.676-4.47C37.231 16.25 40 17.93 40 20.597v7.277c0 1.953-1.012 3.756-2.65 4.722l-6.258 3.692a5.08 5.08 0 01-5.184 0l-6.259-3.692C18.012 31.631 17 29.828 17 27.875v-7.31c0-1.953 1.012-3.757 2.65-4.723l7.65-4.513c1.165-.686 2.645-.265 3.308.942z" fill="url(#paint0_linear)"/><path d="M61.764 30v-1.998h-6.678v-3.51h6.138v-2.016h-6.138v-3.078h6.408V17.4h-8.766V30h9.036zm5.242.324c1.62 0 2.412-.882 2.754-1.53-.072.306-.072.54-.072.846V30h2.196V17.4h-2.196v4.212c0 .27 0 .54.072.864-.504-.846-1.35-1.548-2.718-1.548-2.052 0-4.05 1.566-4.05 4.716 0 3.096 1.692 4.68 4.014 4.68zm.522-1.728c-1.314 0-2.304-1.152-2.304-2.97 0-1.746.99-2.952 2.304-2.952 1.314 0 2.286 1.152 2.286 2.952 0 1.764-.972 2.97-2.286 2.97zm6.459-8.712h2.304V17.58h-2.304v2.304zm.054 1.332V30h2.196v-8.784H74.04zm8.245 8.946c.558 0 1.08-.09 1.296-.162v-1.656c-.216.036-.45.054-.666.054-.936 0-1.296-.54-1.296-1.458v-3.978h2.16v-1.746h-2.16v-3.168h-2.196v3.168h-1.998v1.746h1.998v4.302c0 1.962.99 2.898 2.862 2.898zm6.549-10.278h2.304V17.58h-2.304v2.304zm.054 1.332V30h2.196v-8.784h-2.196zM95.443 30v-5.148c0-1.224.792-2.178 1.872-2.178 1.026 0 1.656.81 1.656 2.106V30h2.196v-5.544c0-2.16-1.152-3.528-3.096-3.528-1.386 0-2.214.666-2.7 1.548a5.38 5.38 0 00.072-.864v-.396h-2.196V30h2.196zm17.019.324c1.962 0 3.24-.846 3.834-1.98-.09.414-.126.828-.126 1.26V30h2.16v-6.714h-5.58v1.998h3.42v.09c0 1.8-1.458 2.952-3.33 2.952-2.304 0-3.888-1.764-3.888-4.626s1.62-4.626 3.942-4.626c1.674 0 2.79.972 2.952 2.232h2.43c-.234-2.448-2.268-4.23-5.418-4.23-3.798 0-6.336 2.736-6.336 6.624 0 4.032 2.376 6.624 5.94 6.624zm7.796-10.44h2.304V17.58h-2.304v2.304zm.054 1.332V30h2.196v-8.784h-2.196zm8.246 8.946c.558 0 1.08-.09 1.296-.162v-1.656c-.216.036-.45.054-.666.054-.936 0-1.296-.54-1.296-1.458v-3.978h2.16v-1.746h-2.16v-3.168h-2.196v3.168h-1.998v1.746h1.998v4.302c0 1.962.99 2.898 2.862 2.898zm5.091 3.51V29.64c0-.252-.018-.486-.072-.846.558.9 1.314 1.53 2.79 1.53 2.232 0 3.942-1.818 3.942-4.662 0-2.79-1.53-4.734-3.852-4.734-1.386 0-2.322.612-2.88 1.548a5.38 5.38 0 00.072-.864v-.396h-2.196v12.456h2.196zm2.178-5.076c-1.332 0-2.268-1.206-2.268-2.97 0-1.818.954-2.952 2.268-2.952 1.404 0 2.25 1.224 2.25 2.952 0 1.764-.9 2.97-2.25 2.97zm10.132 1.728c2.646 0 4.518-1.764 4.518-4.68 0-2.88-1.872-4.716-4.518-4.716-2.628 0-4.5 1.836-4.5 4.716 0 2.916 1.854 4.68 4.5 4.68zm0-1.728c-1.368 0-2.268-1.08-2.268-2.952 0-1.908.936-2.97 2.268-2.97 1.35 0 2.286 1.062 2.286 2.97 0 1.872-.918 2.952-2.286 2.952zm9.708 1.728c1.62 0 2.412-.882 2.754-1.53-.072.306-.072.54-.072.846V30h2.196V17.4h-2.196v4.212c0 .27 0 .54.072.864-.504-.846-1.35-1.548-2.718-1.548-2.052 0-4.05 1.566-4.05 4.716 0 3.096 1.692 4.68 4.014 4.68zm.522-1.728c-1.314 0-2.304-1.152-2.304-2.97 0-1.746.99-2.952 2.304-2.952 1.314 0 2.286 1.152 2.286 2.952 0 1.764-.972 2.97-2.286 2.97z" fill="#12100C"/></g><defs><linearGradient id="paint0_linear" x1="34.311" y1="14.932" x2="21.995" y2="33.722" gradientUnits="userSpaceOnUse"><stop stop-color="#FFB45B"/><stop offset="1" stop-color="#FF8A00"/></linearGradient><filter id="filter0_d" x="0" y="0" width="179" height="50" filterUnits="userSpaceOnUse" color-interpolation-filters="sRGB"><feFlood flood-opacity="0" result="BackgroundImageFix"/><feColorMatrix in="SourceAlpha" values="0 0 0 0 0 0 0 0 0 0 0 0 0 0 0 0 0 0 127 0"/><feOffset dy="1"/><feGaussianBlur stdDeviation=".5"/><feColorMatrix values="0 0 0 0 0 0 0 0 0 0 0 0 0 0 0 0 0 0 0.1 0"/><feBlend in2="BackgroundImageFix" result="effect1_dropShadow"/><feBlend in="SourceGraphic" in2="effect1_dropShadow" result="shape"/></filter></defs></svg>